<!--?xml version="1.0" encoding="utf-8"?-->
<!-- Generator: Adobe Illustrator 18.1.1, SVG Export Plug-In . SVG Version: 6.00 Build 0)  -->

<svg version="1.1" id="_x32_" xmlns="http://www.w3.org/2000/svg" xmlns:xlink="http://www.w3.org/1999/xlink" x="0px" y="0px" viewBox="0 0 512 512" style="width: 256px; height: 256px; opacity: 1;" xml:space="preserve">
<style type="text/css">
	.st0{fill:#4B4B4B;}
</style>
<g>
	<path class="st0" d="M52.963,0v512h176.552v-70.621v-52.966h52.965v52.966V512h176.556V0H52.963z M176.55,441.379h-52.966v-52.966
		h52.966V441.379z M176.55,335.448h-52.966v-52.966h52.966V335.448z M176.55,229.517h-52.966v-52.966h52.966V229.517z
		 M176.55,123.586h-52.966V70.621h52.966V123.586z M282.48,335.448h-52.965v-52.966h52.965V335.448z M282.48,229.517h-52.965
		v-52.966h52.965V229.517z M282.48,123.586h-52.965V70.621h52.965V123.586z M388.416,441.379h-52.97v-52.966h52.97V441.379z
		 M388.416,335.448h-52.97v-52.966h52.97V335.448z M388.416,229.517h-52.97v-52.966h52.97V229.517z M388.416,123.586h-52.97V70.621
		h52.97V123.586z" style="fill: rgb(255, 255, 255);"></path>
</g>
</svg>
