<!--?xml version="1.0" encoding="utf-8"?-->
<!-- Generator: Adobe Illustrator 18.1.1, SVG Export Plug-In . SVG Version: 6.00 Build 0)  -->

<svg version="1.1" id="_x32_" xmlns="http://www.w3.org/2000/svg" xmlns:xlink="http://www.w3.org/1999/xlink" x="0px" y="0px" viewBox="0 0 512 512" style="width: 256px; height: 256px; opacity: 1;" xml:space="preserve">
<style type="text/css">
	.st0{fill:#4B4B4B;}
</style>
<g>
	<path class="st0" d="M88.062,219.807c-3.401-2.322-7.203-3.54-10.984-3.532c-3.793-0.008-7.595,1.21-11,3.532
		c-4.676,3.18-8.604,8.306-11.347,14.814c-2.682,6.368-4.105,13.759-4.105,21.37c0.008,10.203,2.538,19.882,7.125,27.257
		c2.375,3.793,5.176,6.802,8.322,8.936c3.401,2.313,7.203,3.54,11,3.54c3.789,0,7.586-1.226,10.988-3.54
		c4.668-3.172,8.593-8.29,11.344-14.806c2.682-6.361,4.1-13.759,4.104-21.387c-0.008-10.187-2.538-19.866-7.125-27.241
		C94.017,224.958,91.218,221.949,88.062,219.807z M86.933,275.523c-1.402,2.249-3.057,4.056-4.794,5.225
		c-1.66,1.128-3.315,1.675-5.061,1.675c-1.762,0-3.426-0.548-5.085-1.675c-2.666-1.79-5.078-5.045-6.81-9.148
		c-1.921-4.57-2.944-9.95-2.944-15.575v-0.081c0-7.334,1.811-14.43,4.963-19.466c1.406-2.257,3.057-4.064,4.791-5.225
		c1.668-1.128,3.327-1.676,5.081-1.676c1.745,0,3.405,0.54,5.073,1.668c2.66,1.798,5.076,5.044,6.802,9.148
		c1.929,4.57,2.947,9.966,2.947,15.648C91.896,263.391,90.089,270.487,86.933,275.523z" style="fill: rgb(255, 255, 255);"></path>
	<path class="st0" d="M77.912,181.089c-13.187,0-25.454,8.028-34.533,22.621c-8.752,14.038-13.576,32.612-13.584,52.282
		c0.008,19.687,4.832,38.253,13.58,52.29c9.084,14.594,21.346,22.63,34.538,22.63c13.167,0,25.426-8.036,34.509-22.63
		c8.752-14.045,13.571-32.62,13.579-52.29c-0.008-19.67-4.827-38.237-13.575-52.282C103.338,189.116,91.079,181.089,77.912,181.089z
		 M118.118,255.992h-1.659v0.049c0,17.414-4.19,33.715-11.802,45.888c-7.28,11.65-16.784,18.06-26.746,18.06
		c-9.978,0-19.486-6.41-26.774-18.06c-7.612-12.173-11.802-28.467-11.802-45.986c0-17.406,4.19-33.699,11.802-45.872
		c7.292-11.65,16.796-18.068,26.774-18.06c9.961-0.008,19.457,6.41,26.746,18.052c7.612,12.182,11.802,28.475,11.802,45.881
		L118.118,255.992z" style="fill: rgb(255, 255, 255);"></path>
	<polygon class="st0" points="12.046,191.634 12.528,190.507 12.561,190.425 	" style="fill: rgb(255, 255, 255);"></polygon>
	<path class="st0" d="M490.27,172.618l-0.817-1.292l0.801,1.292c-6.851-10.996-15.206-20.193-24.837-26.733
		c-9.631-6.541-20.602-10.342-32.146-10.334H78.733c-11.54-0.008-22.515,3.793-32.146,10.334
		c-14.459,9.826-26.006,25.54-34.022,44.54l-0.037,0.082C4.533,209.522,0.008,231.973,0,255.992V256
		c0.02,32.072,8.04,61.365,21.73,83.373l0.003,0.008c6.868,10.996,15.219,20.194,24.854,26.733
		c9.631,6.541,20.606,10.342,32.146,10.334h354.538c11.527,0.008,22.499-3.793,32.146-10.334
		c14.454-9.835,25.998-25.548,34.026-44.54C507.455,302.543,511.984,280.06,512,256v-0.008
		C511.967,223.927,503.972,194.627,490.27,172.618z M122.227,328.336c-5.707,9.149-12.448,16.45-19.806,21.437
		c-7.37,4.987-15.328,7.677-23.688,7.684c-4.182-0.007-8.27-0.678-12.222-1.978c-3.884-1.268-7.632-3.155-11.25-5.576l-0.216-0.13
		l-0.008-0.008l-0.095-0.066c-1.618-1.104-3.2-2.346-4.753-3.671c-0.479-0.408-0.944-0.842-1.422-1.275
		c-1.141-1.03-2.257-2.118-3.356-3.271c-0.47-0.482-0.936-0.964-1.402-1.479c-1.415-1.554-2.8-3.197-4.129-4.938l-0.364-0.482
		c-1.313-1.75-2.575-3.613-3.81-5.543c-0.404-0.654-0.797-1.316-1.198-1.978c-0.907-1.496-1.778-3.042-2.628-4.628
		c-0.377-0.702-0.757-1.397-1.116-2.117c-1.108-2.208-2.184-4.464-3.18-6.818l-0.086-0.18l-0.081-0.204
		c-0.994-2.379-1.917-4.848-2.788-7.366c-0.262-0.76-0.512-1.537-0.765-2.306c-0.641-1.962-1.238-3.965-1.798-6.001
		c-0.217-0.793-0.445-1.586-0.654-2.388c-1.422-5.543-2.555-11.347-3.36-17.34c-0.119-0.891-0.217-1.79-0.323-2.689
		c-0.261-2.224-0.474-4.489-0.641-6.762c-0.07-0.94-0.143-1.864-0.201-2.804c-0.179-3.115-0.298-6.263-0.298-9.467
		c0-3.188,0.119-6.328,0.298-9.434c0.058-0.966,0.132-1.913,0.201-2.862c0.172-2.249,0.38-4.48,0.637-6.688
		c0.106-0.915,0.208-1.84,0.332-2.747c0.806-6.001,1.937-11.789,3.36-17.324c0.204-0.801,0.424-1.578,0.646-2.355
		c0.564-2.06,1.173-4.08,1.823-6.066c0.241-0.752,0.482-1.512,0.736-2.248c0.899-2.584,1.835-5.118,2.861-7.555l0.016-0.032
		l0.058-0.122c1.014-2.396,2.1-4.685,3.229-6.925c0.339-0.67,0.699-1.324,1.046-1.978c0.888-1.668,1.807-3.295,2.759-4.865
		c0.356-0.58,0.703-1.169,1.062-1.749c2.609-4.096,5.412-7.808,8.401-11.094c0.421-0.474,0.862-0.924,1.292-1.374
		c1.132-1.177,2.285-2.306,3.458-3.368c0.454-0.409,0.908-0.834,1.374-1.226c1.554-1.324,3.131-2.559,4.742-3.662l0.127-0.09
		c1.672-1.136,3.388-2.117,5.126-3.008l0.502-0.295c1.767-0.883,3.577-1.602,5.404-2.224l0.43-0.188
		c3.956-1.292,8.04-1.962,12.226-1.978c8.36,0.016,16.319,2.697,23.688,7.693c11.033,7.464,20.688,20.186,27.54,36.454
		c6.863,16.253,10.914,36.005,10.914,57.31C140.88,284.41,133.656,310.048,122.227,328.336z" style="fill: rgb(255, 255, 255);"></path>
</g>
</svg>
